<svg xmlns="http://www.w3.org/2000/svg" width="1440" height="1446" fill="none"><g clip-path="url(#a)"><path fill="#fff" d="M0 0h1440v1446H0z"/><rect width="818" height="818" x="-71.166" y="-321" fill="#C4C4C4" fill-opacity=".6" rx="409"/><rect width="479.295" height="484" x="858.706" y="403" fill="#C4C4C4" fill-opacity=".6" rx="239.648"/><rect width="394.131" height="398" x="1045.87" y="-111" fill="#C4C4C4" fill-opacity=".6" rx="197.066"/><rect width="1109.11" height="1120" x="-190" y="274" fill="#C4C4C4" fill-opacity=".6" rx="554.557"/><path fill="url(#b)" fill-opacity=".2" d="m532.074 162-81.2 245h-48.3l-60.55-181.3-61.6 181.3h-48.65l-81.2-245h47.25l60.9 186.2 63.35-186.2h42l61.95 187.25L488.674 162h43.4Zm113.353 247.45c-18.9 0-35.933-4.083-51.1-12.25-15.166-8.167-27.066-19.483-35.7-33.95-8.4-14.7-12.6-31.267-12.6-49.7 0-18.433 4.2-34.883 12.6-49.35 8.634-14.467 20.534-25.783 35.7-33.95 15.167-8.167 32.2-12.25 51.1-12.25 19.134 0 36.284 4.083 51.45 12.25 15.167 8.167 26.95 19.483 35.35 33.95 8.634 14.467 12.95 30.917 12.95 49.35s-4.316 35-12.95 49.7c-8.4 14.467-20.183 25.783-35.35 33.95-15.166 8.167-32.316 12.25-51.45 12.25Zm0-37.45c16.1 0 29.4-5.367 39.9-16.1s15.75-24.85 15.75-42.35-5.25-31.617-15.75-42.35-23.8-16.1-39.9-16.1c-16.1 0-29.4 5.367-39.9 16.1-10.266 10.733-15.4 24.85-15.4 42.35s5.134 31.617 15.4 42.35c10.5 10.733 23.8 16.1 39.9 16.1Zm193.736-124.6c12.6-19.6 34.767-29.4 66.5-29.4v41.65c-3.733-.7-7.117-1.05-10.15-1.05-17.033 0-30.333 5.017-39.9 15.05-9.567 9.8-14.35 24.033-14.35 42.7V407h-43.75V220.1h41.65v27.3Zm114.114-100.1h43.75V407h-43.75V147.3Zm294.723 0V407h-42v-24.15c-7.23 8.867-16.22 15.517-26.95 19.95-10.5 4.433-22.17 6.65-35 6.65-17.97 0-34.18-3.967-48.65-11.9-14.23-7.933-25.43-19.133-33.6-33.6-8.17-14.7-12.25-31.5-12.25-50.4s4.08-35.583 12.25-50.05c8.17-14.467 19.37-25.667 33.6-33.6 14.47-7.933 30.68-11.9 48.65-11.9 12.37 0 23.68 2.1 33.95 6.3 10.27 4.2 19.02 10.5 26.25 18.9v-95.9H1248ZM1149.3 372c10.5 0 19.95-2.333 28.35-7 8.4-4.9 15.05-11.783 19.95-20.65 4.9-8.867 7.35-19.133 7.35-30.8 0-11.667-2.45-21.933-7.35-30.8-4.9-8.867-11.55-15.633-19.95-20.3-8.4-4.9-17.85-7.35-28.35-7.35s-19.95 2.45-28.35 7.35c-8.4 4.667-15.05 11.433-19.95 20.3-4.9 8.867-7.35 19.133-7.35 30.8 0 11.667 2.45 21.933 7.35 30.8 4.9 8.867 11.55 15.75 19.95 20.65 8.4 4.667 17.85 7 28.35 7Z"/><path fill="url(#b)" fill-opacity=".35" d="M148 836.8h140v26h-60v72.4h60v26H148v-26h57.8v-72.4H148v-26Zm87.2-141.514c1.733 0 4.2.133 7.4.4v83.8c7.867-1.467 14.133-5.267 18.8-11.4 4.533-6.267 6.8-14 6.8-23.2 0-11.733-3.867-21.4-11.6-29l15.4-13.4c5.733 4.8 10.067 10.867 13 18.2 2.933 7.333 4.4 15.6 4.4 24.8 0 11.733-2.333 22.067-7 31s-11.133 15.867-19.4 20.8c-8.4 4.8-17.867 7.2-28.4 7.2-10.4 0-19.733-2.333-28-7-8.4-4.8-14.933-11.4-19.6-19.8-4.667-8.4-7-17.867-7-28.4 0-10.4 2.333-19.667 7-27.8 4.533-8.267 11-14.667 19.4-19.2 8.267-4.667 17.867-7 28.8-7Zm-35.2 54c0 8 2.4 14.8 7.2 20.4 4.667 5.467 10.933 8.8 18.8 10v-60.6c-7.733 1.067-14 4.333-18.8 9.8-4.8 5.467-7.2 12.267-7.2 20.4Zm-60.4-84.014v-25H288v25H139.6Zm0-63.813v-25H288v25H139.6Zm149.8-111.812c0 10.8-2.333 20.533-7 29.2-4.667 8.666-11.133 15.466-19.4 20.4-8.4 4.8-17.867 7.2-28.4 7.2-10.533 0-19.933-2.4-28.2-7.2-8.267-4.934-14.733-11.734-19.4-20.4-4.667-8.667-7-18.4-7-29.2 0-10.934 2.333-20.734 7-29.4 4.667-8.667 11.133-15.4 19.4-20.2 8.267-4.934 17.667-7.4 28.2-7.4 10.533 0 20 2.466 28.4 7.4 8.267 4.8 14.733 11.533 19.4 20.2 4.667 8.666 7 18.466 7 29.4Zm-21.4 0c0-9.2-3.067-16.8-9.2-22.8-6.133-6-14.2-9-24.2-9s-18.067 3-24.2 9c-6.133 6-9.2 13.6-9.2 22.8 0 9.2 3.067 16.8 9.2 22.8 6.133 5.866 14.2 8.8 24.2 8.8s18.067-2.934 24.2-8.8c6.133-6 9.2-13.6 9.2-22.8Z"/></g><defs><linearGradient id="b" x1="235.791" x2="441.092" y1="352" y2="1020.92" gradientUnits="userSpaceOnUse"><stop stop-color="#6C6C6C"/><stop offset="1" stop-color="#979797"/></linearGradient><clipPath id="a"><path fill="#fff" d="M0 0h1440v1446H0z"/></clipPath></defs></svg>